<?xml version="1.0" encoding="UTF-8" standalone="no"?>
<!-- Created with Inkscape (http://www.inkscape.org/) -->

<svg
   version="1.1"
   id="svg4219"
   width="430.66666"
   height="429.33334"
   viewBox="0 0 430.66666 429.33334"
   sodipodi:docname="closed_toe_shoes.svg"
   inkscape:version="1.2.1 (9c6d41e4, 2022-07-14)"
   xmlns:inkscape="http://www.inkscape.org/namespaces/inkscape"
   xmlns:sodipodi="http://sodipodi.sourceforge.net/DTD/sodipodi-0.dtd"
   xmlns="http://www.w3.org/2000/svg"
   xmlns:svg="http://www.w3.org/2000/svg">
  <sodipodi:namedview
     id="namedview187"
     pagecolor="#ffffff"
     bordercolor="#000000"
     borderopacity="0.25"
     inkscape:showpageshadow="2"
     inkscape:pageopacity="0.0"
     inkscape:pagecheckerboard="0"
     inkscape:deskcolor="#d1d1d1"
     showgrid="false"
     inkscape:zoom="0.54968943"
     inkscape:cx="-12.734464"
     inkscape:cy="214.66667"
     inkscape:window-width="1309"
     inkscape:window-height="456"
     inkscape:window-x="0"
     inkscape:window-y="25"
     inkscape:window-maximized="0"
     inkscape:current-layer="svg4219" />
  <defs
     id="defs4223" />
  <g
     id="g4225">
    <path
       style="fill:#0a406b;fill-opacity:1;stroke-width:0.666667"
       d="m 193.66666,401.33334 c -0.22661,-0.36667 -1.96932,-0.66643 -3.87268,-0.66615 -7.85882,10e-4 -35.21544,-6.6225 -45.46065,-11.00709 -1.1,-0.47076 -4.25,-1.76509 -7,-2.87631 C 115.65648,378.02469 92.999925,362.43914 74.999999,343.90438 65.982892,334.61935 63.720134,331.9333 56.547462,322.00001 42.41078,302.42238 31.718691,279.40385 26.355015,257 25.740533,254.43334 24.982563,251.28334 24.670638,250 23.171738,243.83318 22,236.64565 22,233.6181 c 0,-1.84328 -0.309021,-3.66045 -0.686712,-4.03814 -0.884032,-0.88403 -0.425647,-37.1494 0.563478,-44.57996 0.390474,-2.93333 1.197387,-7.58333 1.793141,-10.33333 0.595754,-2.75 1.318071,-6.2 1.605148,-7.66667 1.184526,-6.05168 7.066782,-24.85553 8.122943,-25.96666 0.331101,-0.34834 0.602001,-1.14902 0.602001,-1.77931 0,-0.63029 0.42313,-1.99529 0.94029,-3.03333 0.517159,-1.03805 2.818296,-5.78615 5.113639,-10.55133 6.290934,-13.06013 13.226408,-24.02779 23.188114,-36.669369 7.80145,-9.900173 28.672863,-29.514159 38.503898,-36.184169 11.61056,-7.877361 23.743,-14.745561 32.58739,-18.447809 1.46667,-0.613944 3.51598,-1.547908 4.55403,-2.075475 1.03804,-0.527568 2.40304,-0.959214 3.03333,-0.959214 0.63029,0 1.43097,-0.27604 1.77931,-0.613421 1.18584,-1.148563 18.41008,-6.63361 25.13873,-8.005414 1.55537,-0.317099 5.22793,-1.075878 8.16127,-1.686175 2.93333,-0.610297 7.73333,-1.433074 10.66666,-1.828393 7.2496,-0.977014 42.61786,-1.016311 49.33334,-0.05481 8.53332,1.22177 13.8282,2.134789 16.33333,2.816423 1.28333,0.349189 4.43333,1.131234 7,1.737877 2.56667,0.606642 5.26667,1.327405 6,1.601694 0.73333,0.274289 3.88333,1.307966 7,2.29706 3.11667,0.989094 6.86667,2.270048 8.33333,2.846566 1.46667,0.576518 3.26667,1.276539 4,1.555602 C 286.4,32.279404 291.05,34.464975 296,36.857165 c 15.20283,7.347083 25.93232,14.167916 39.33333,25.004553 3.96604,3.207118 22.54331,21.581683 24.66666,24.397523 0.91667,1.21562 3.90376,5.179587 6.638,8.80882 7.12986,9.463709 13.35792,19.602369 18.52746,30.160839 2.47566,5.05641 4.84424,10.07344 5.2635,11.14896 4.44674,11.40707 8.53313,24.68048 10.14578,32.95548 0.39302,2.01666 1.17448,5.87846 1.73658,8.58178 0.56211,2.7033 1.02202,6.4683 1.02202,8.36666 0,1.89836 0.30916,3.76072 0.68702,4.13858 0.88047,0.88047 0.42747,36.44638 -0.55932,43.91298 -0.85218,6.44799 -1.92491,12.51407 -2.77052,15.66666 -0.34422,1.28334 -1.11343,4.58334 -1.70936,7.33334 -0.59592,2.75 -1.33756,5.6 -1.64809,6.33333 -0.31053,0.73333 -1.16897,3.34983 -1.90766,5.81444 -4.89267,16.32431 -15.47007,37.11103 -27.06365,53.18556 -24.5627,34.05622 -62.63901,60.96669 -101.36175,71.63752 -2.2,0.60625 -4.91574,1.38382 -6.03498,1.72792 -5.22877,1.60753 -17.80304,3.93343 -23.79836,4.40204 C 234.325,400.65626 232,401.09944 232,401.419 c 0,0.83335 -37.81758,0.74884 -38.33334,-0.0857 z m 42.16667,-8.68994 c 12.38869,-1.91299 21.16301,-3.78165 29.5,-6.28261 2.01667,-0.60497 4.41667,-1.27389 5.33333,-1.4865 0.91667,-0.2126 1.96667,-0.60659 2.33334,-0.87554 0.36666,-0.26894 2.31666,-1.02567 4.33333,-1.68161 4.93914,-1.60651 12.30645,-4.97723 22.66667,-10.37055 3.13062,-1.62973 17.40703,-10.51219 19.66666,-12.23615 29.51267,-22.51631 48.71509,-46.20976 61.62985,-76.04377 0.79362,-1.83333 1.70327,-3.93333 2.02144,-4.66667 0.31817,-0.73333 1.10345,-2.83333 1.74506,-4.66666 0.64162,-1.83334 1.37466,-3.63334 1.62898,-4 0.25433,-0.36667 0.62789,-1.41667 0.83014,-2.33334 0.20224,-0.91666 0.86634,-3.31666 1.47578,-5.33333 2.07621,-6.87043 3.64019,-13.80253 5.79077,-25.66667 1.26335,-6.96953 1.45055,-10.40442 1.45338,-26.66666 0.003,-21.02292 -0.89411,-29.00834 -5.05918,-45 -0.71625,-2.75 -1.52785,-5.9 -1.80355,-7 -0.87687,-3.49843 -1.96164,-6.708 -5.40768,-16 -2.00418,-5.40414 -8.15036,-18.0792 -12.08816,-24.929 -1.76926,-3.07762 -3.21683,-5.70951 -3.21683,-5.84865 0,-0.50479 -10.96666,-15.324129 -14.22499,-19.222355 -5.24762,-6.278174 -15.51287,-16.612287 -22.44168,-22.592221 -5.74964,-4.96225 -20.15368,-15.741113 -21.03521,-15.741113 -0.19919,0 -1.92276,-0.988973 -3.83014,-2.197718 -1.90739,-1.208744 -5.41798,-3.203632 -7.80131,-4.433084 C 296.95,46.139747 294.55,44.881079 294,44.572159 c -2.69709,-1.514881 -13.13726,-6.028913 -16.20152,-7.005076 -1.90583,-0.60713 -3.76515,-1.305437 -4.13182,-1.551794 -0.36666,-0.246356 -2.61666,-0.98371 -5,-1.638565 -2.38333,-0.654855 -4.93333,-1.41742 -5.66666,-1.694589 -2.62898,-0.99364 -10.14054,-2.749459 -18.66667,-4.36331 -6.55132,-1.240054 -24.80273,-2.934414 -31.9256,-2.963797 -12.05503,-0.04973 -32.28249,2.579536 -44.40773,5.772337 -2.01667,0.531025 -4.86667,1.279758 -6.33334,1.663848 -3.43232,0.898858 -8.95753,2.578298 -10.66666,3.242234 -35.40142,13.75215 -60.754755,31.915674 -82.773054,59.299888 -14.45862,17.982225 -27.348315,43.086945 -32.859975,64.000005 -0.434859,1.65 -1.068316,3.91574 -1.40768,5.03498 -1.976378,6.51818 -4.448151,22.41481 -5.357113,34.45301 -0.668462,8.85303 -0.675334,13.25489 -0.03331,21.33333 0.81698,10.27982 2.358913,22.22113 3.423387,26.51201 0.318367,1.28333 1.075783,4.43333 1.683147,7 0.607364,2.56667 1.354864,5.41667 1.661112,6.33333 0.306248,0.91667 1.065564,3.46667 1.68737,5.66667 0.621807,2.2 1.500805,4.9 1.95333,6 0.452524,1.1 1.205837,3.05 1.674028,4.33333 0.468191,1.28334 1.188194,3.22096 1.600005,4.30584 1.028641,2.70986 11.195595,23.28126 11.710311,23.69416 0.228538,0.18334 1.447147,1.98334 2.708021,4 3.35002,5.3581 10.370743,15.07017 14.216756,19.66667 6.47324,7.73638 23.190873,23.81925 28.718466,27.62803 0.767359,0.52875 1.545199,1.15976 1.728529,1.40226 0.4456,0.5894 14.72789,10.2846 16,10.86123 0.55,0.2493 1.9,1.00133 3,1.67116 8.89539,5.41677 26.01965,13.19695 34,15.44746 1.1,0.31021 3.65,1.04914 5.66667,1.64207 13.27099,3.90188 28.86146,6.78701 39.33333,7.27894 7.98868,0.37527 31.94565,-0.25117 36.5,-0.95442 z m -41.16667,-7.63001 C 153.70355,380.62575 117.75684,363.62445 88.935885,335.00714 76.337952,322.49822 69.253519,313.45242 60.75416,299.02314 44.558888,271.52857 36.336565,241.20713 36.432803,209.33334 c 0.03207,-10.62 0.453716,-15.27511 2.807924,-31 0.587154,-3.92188 3.423264,-15.72394 4.886229,-20.33334 1.285249,-4.04946 3.963827,-11.57557 4.982663,-14 0.539305,-1.28333 1.216755,-2.93333 1.505444,-3.66666 1.680169,-4.268 10.82858,-21.77235 12.369061,-23.66667 0.447265,-0.55 0.972413,-1.45469 1.166996,-2.01043 0.496556,-1.41817 9.454819,-13.37106 14.491972,-19.336432 C 87.588992,84.725401 103.25976,70.806388 115,63.027047 c 12.86722,-8.526101 31.26976,-17.340717 44,-21.075516 6.99319,-2.051665 17.93195,-4.790074 21.33333,-5.340585 13.35614,-2.161686 27.10919,-3.332347 35.33333,-3.007576 30.68214,1.211636 57.17445,8.255729 81.33334,21.625887 4.89434,2.708657 20.22076,12.479364 21,13.387657 0.18333,0.213694 2.58333,2.18502 5.33333,4.38072 12.93568,10.328341 27.81899,26.846914 37.21929,41.308686 3.89085,5.98582 11.0635,19.5569 14.63681,27.69368 1.48532,3.38222 7.06442,20.25745 8.04482,24.33334 3.78876,15.7513 5.45295,29.51742 5.39978,44.66666 -0.025,7.1221 -1.2113,21.26298 -2.32099,27.66667 -1.27791,7.37445 -2.45546,13.20512 -2.96204,14.66667 -0.31772,0.91666 -1.08587,3.46666 -1.707,5.66666 -3.6513,12.93265 -11.3365,30.67736 -17.40172,40.17962 -1.23326,1.93212 -2.24229,3.62533 -2.24229,3.7627 0,0.7054 -8.149,12.15172 -12.38123,17.39102 -7.70469,9.53804 -22.95407,24.61443 -29.36189,29.02879 -0.77538,0.53416 -4.22538,2.91826 -7.66667,5.29798 -10.54048,7.289 -21.48372,13.33306 -32.05852,17.70628 -5.67468,2.34676 -20.67707,7.2714 -25.19835,8.27153 -2.01667,0.44609 -4.86667,1.12037 -6.33333,1.49839 -12.20775,3.14639 -38.71486,4.55001 -54.33334,2.87708 z M 158,301.36312 c 5.31666,-0.38836 12.06666,-1.0088 15,-1.37873 2.93333,-0.36993 7.17362,-0.48653 9.42287,-0.25909 7.51679,0.76006 8.94627,-0.87003 8.71972,-9.94354 -0.0913,-3.65481 0.13859,-5.99284 0.6384,-6.494 0.85562,-0.8579 6.16799,-0.6069 13.55234,0.64032 4.74221,0.80097 6.84497,1.36122 15.33333,4.08536 3.11667,1.00022 7.91667,2.47321 10.66667,3.27332 2.75,0.8001 5.93881,1.74424 7.08625,2.09806 1.37062,0.42266 2.70042,0.40982 3.87674,-0.0374 0.98476,-0.37442 4.81136,-0.68075 8.50354,-0.68075 3.69219,0 8.54766,-0.28605 10.78994,-0.63567 4.93734,-0.76982 13.4208,-2.01004 18.4102,-2.69143 6.1544,-0.84049 18.55565,-4.01073 28.33333,-7.24311 5.18148,-1.71292 5.33953,-1.8281 5.55085,-4.04527 0.11964,-1.25517 -0.1321,-2.93541 -0.5594,-3.73383 -0.42731,-0.79844 -0.6752,-2.17148 -0.55086,-3.0512 0.22398,-1.58466 0.3299,-1.60567 11.42106,-2.26616 11.79971,-0.70268 12.74239,-1.01258 12.15039,-3.99446 -0.1462,-0.73638 -0.62223,-4.33887 -1.05785,-8.00554 -0.43561,-3.66666 -1.38007,-8.91666 -2.09879,-11.66666 -0.71871,-2.75 -1.46712,-5.84454 -1.66312,-6.87676 -0.47301,-2.49108 -4.66526,-5.10243 -12.19228,-7.5946 -3.98522,-1.31948 -8.39373,-2.10168 -15.71566,-2.78843 -8.70913,-0.81685 -9.52087,-1.36959 -13.32534,-9.07355 -1.26751,-2.56666 -3.51815,-6.16666 -5.00142,-8 -1.48327,-1.83333 -4.67163,-6.33333 -7.08525,-10 -4.8747,-7.40546 -10.79449,-14.26875 -20.02125,-23.21224 -9.36373,-9.07625 -9.05445,-7.95438 -8.62966,-31.30237 0.26317,-14.46476 0.63583,-20.77369 1.44631,-24.48539 2.713,-12.42461 2.84089,-21.317 0.37982,-26.410832 -0.7167,-1.48338 -2.52145,-3.797787 -4.01057,-5.143113 -2.32389,-2.099494 -3.15979,-2.446054 -5.89993,-2.446054 -1.75584,0 -6.62997,-0.42136 -10.83141,-0.936353 C 226.43754,86.548655 219.85,85.770615 216,85.334675 c -6.77265,-0.76688 -16.98928,-2.364447 -27.33334,-4.274094 -5.30277,-0.97896 -7.26863,-0.5911 -7.41454,1.462874 -0.19942,2.807113 0.13818,24.666635 0.50926,32.974895 0.40936,9.16501 0.40936,9.16501 -1.84268,10.08424 -3.41418,1.39358 -14.0485,2.86871 -29.58537,4.10392 -17.43347,1.38599 -31.35421,3.22425 -32.66695,4.31373 -1.58774,1.3177 -1.27541,6.83336 0.59606,10.52653 3.03921,5.9976 5.3435,13.96965 8.03735,27.80657 0.49969,2.56666 1.50028,6.61666 2.22353,9 3.39356,11.1829 4.44884,22.68581 3.79194,41.33333 -0.41201,11.69571 -0.6232,13.40132 -2.10502,17 -3.50012,8.50029 -4.25539,13.93487 -2.80133,20.1571 0.84037,3.59615 3.42055,10.88506 5.60816,15.8429 0.80895,1.83333 1.99382,4.68333 2.63305,6.33333 0.63924,1.65 1.47668,3.75 1.861,4.66667 0.38432,0.91667 0.87654,4.81468 1.09382,8.66226 C 139,302.32452 139,302.32452 141,302.6834 c 1.1,0.19738 3.2,0.13994 4.66666,-0.12764 1.46667,-0.26759 7.01667,-0.80428 12.33334,-1.19264 z m 90,-17.02823 c -6.94189,-1.35999 -10.70753,-2.18121 -15.33334,-3.34393 -2.38333,-0.59906 -5.68333,-1.36514 -7.33333,-1.70238 -1.65,-0.33726 -3.6,-0.90174 -4.33333,-1.2544 -0.73334,-0.35267 -2.98334,-0.77097 -5,-0.92955 -2.01667,-0.15859 -6.06667,-0.68525 -9,-1.17035 -6.58463,-1.08896 -44.42074,-1.12716 -51.31232,-0.0518 -3.47925,0.54289 -4.76542,0.5311 -5.12268,-0.0469 -0.73392,-1.18752 -0.12944,-1.66348 2.59748,-2.04524 1.3773,-0.19281 4.75418,-0.66133 7.50418,-1.04114 6.47227,-0.89392 29.55394,-0.90687 36,-0.0202 2.75,0.37827 7.25,0.95349 10,1.27827 5.80908,0.68606 11.43486,1.60019 15.86737,2.57829 1.72295,0.3802 5.53263,1.1792 8.46597,1.77557 2.93333,0.59637 6.08333,1.35427 7,1.68422 0.91666,0.32995 5.71666,0.92067 10.66666,1.31271 9.11411,0.72182 26.09608,0.002 31.33334,-1.32802 2.26221,-0.57453 7.26098,-1.72725 10.66666,-2.45975 0.91667,-0.19716 2.61201,-0.78111 3.76742,-1.29768 1.15542,-0.51656 2.44572,-0.93921 2.86736,-0.93921 0.42162,0 1.20549,-1.05044 1.74193,-2.3343 2.03836,-4.87849 -2.30439,-12.99948 -8.71004,-16.28785 -3.02187,-1.55129 -4.14312,-1.72295 -12,-1.83719 -11.68795,-0.16993 -10.92269,-0.0384 -9.09281,-1.56284 1.36924,-1.14069 2.58264,-1.30928 9.33333,-1.29674 7.15477,0.0133 8.02614,0.15617 11.18122,1.83334 4.11129,2.18546 6.39929,4.13522 9.81205,8.36144 2.92166,3.61809 3.62036,6.71416 2.47505,10.96753 -0.88901,3.30155 -2.7456,5.24565 -5.61038,5.87487 -1.13008,0.2482 -2.51454,0.68284 -3.07658,0.96586 -1.44861,0.72945 -9.96625,2.39194 -17.02188,3.32237 -3.3,0.43517 -7.6301,1.06173 -9.62244,1.39237 -4.91073,0.81494 -13.44853,0.63365 -18.71089,-0.3973 z m 62,-22.13729 c -2.26838,-0.40736 -3.96729,-2.73168 -3.98518,-5.45221 -0.0266,-4.04557 -6.19083,-8.44511 -15.45076,-11.02754 -2.8534,-0.79576 -6.99524,-1.05118 -17.04567,-1.05118 -15.80451,0 -18.94844,-0.63867 -21.46499,-4.36051 -3.01772,-4.46304 -15.02054,-15.14698 -27.0534,-24.08074 -6.6,-4.90016 -12.8793,-9.72785 -13.95399,-10.72821 -2.9806,-2.77443 -7.53035,-13.03578 -10.27057,-23.16387 -1.69146,-6.2518 -4.11982,-31.0084 -4.1117,-41.91793 0.003,-3.35071 -0.3994,-4.64675 -2.77598,-8.95207 -2.77891,-5.03414 -2.77891,-5.03414 -2.73232,-21.98308 0.0281,-10.219232 0.30837,-17.210739 0.70591,-17.608279 0.43466,-0.43466 2.89909,-0.300693 7.23232,0.393154 3.61515,0.57886 8.67299,1.378733 11.23966,1.777486 2.56667,0.398754 6.31998,1.147694 8.34069,1.66432 2.4388,0.623507 5.18683,0.798047 8.17366,0.519134 5.55646,-0.518874 12.28307,1.096053 14.53068,3.488527 1.22688,1.305948 1.49659,2.335388 1.46588,5.595048 -0.0207,2.19706 -0.44298,5.57618 -0.93842,7.50917 -0.68092,2.6566 -0.90142,9.86124 -0.90332,29.51452 -0.003,32.06731 -0.0212,31.97372 7.42449,38.33333 1.07321,0.91667 3.71587,3.8608 5.87258,6.54252 3.89495,4.84311 9.42372,10.08623 10.70043,10.14757 0.71468,0.0343 15.11358,22.93142 17.33333,27.5634 2.12497,4.43422 3.17833,5.55622 7.03611,7.49456 3.82525,1.92201 5.48353,2.36055 14.63056,3.86914 13.94405,2.29973 17.1153,3.7974 20.87691,9.85936 0.7673,1.23652 1.12308,3.25528 1.12308,6.37258 0,2.97975 0.33958,5.01166 0.9788,5.85678 2.20248,2.91195 1.4855,3.37012 -5.47879,3.5011 -3.575,0.0672 -7.25,0.23496 -8.16667,0.37273 -0.91667,0.13777 -2.41667,0.1158 -3.33333,-0.0488 z"
       id="path4709" />
  </g>
</svg>
