<?xml version="1.0" encoding="UTF-8" standalone="no"?>
<!-- Created with Inkscape (http://www.inkscape.org/) -->

<svg
   width="95.25mm"
   height="83.60833mm"
   viewBox="0 0 95.25 83.60833"
   version="1.1"
   id="svg12243"
   xml:space="preserve"
   sodipodi:docname="contact.svg"
   inkscape:version="1.2.1 (9c6d41e4, 2022-07-14)"
   xmlns:inkscape="http://www.inkscape.org/namespaces/inkscape"
   xmlns:sodipodi="http://sodipodi.sourceforge.net/DTD/sodipodi-0.dtd"
   xmlns="http://www.w3.org/2000/svg"
   xmlns:svg="http://www.w3.org/2000/svg"><sodipodi:namedview
     id="namedview12245"
     pagecolor="#ffffff"
     bordercolor="#000000"
     borderopacity="0.25"
     inkscape:showpageshadow="2"
     inkscape:pageopacity="0.0"
     inkscape:pagecheckerboard="0"
     inkscape:deskcolor="#d1d1d1"
     inkscape:document-units="mm"
     showgrid="false"
     inkscape:zoom="0.74683547"
     inkscape:cx="12.050847"
     inkscape:cy="157.99999"
     inkscape:window-width="1309"
     inkscape:window-height="456"
     inkscape:window-x="0"
     inkscape:window-y="25"
     inkscape:window-maximized="0"
     inkscape:current-layer="layer1" /><defs
     id="defs12240" /><g
     inkscape:label="Layer 1"
     inkscape:groupmode="layer"
     id="layer1"
     transform="translate(-27.254236,-107.95431)"><path
       style="display:inline;fill:#ffee00;fill-opacity:1;stroke-width:0.264583"
       d="m 30.006036,190.93048 c -1.832987,-0.85522 -2.573691,-1.95257 -2.704489,-4.00672 -0.08487,-1.33287 0.01356,-1.84874 0.557497,-2.92167 1.324578,-2.61278 42.063324,-73.03225 42.770285,-73.93111 2.091968,-2.65983 5.898068,-2.81885 7.986938,-0.33369 0.345725,0.41131 10.332188,17.47224 22.192133,37.91316 l 21.56354,37.16532 v 1.87267 c 0,1.62577 -0.094,1.99588 -0.71266,2.80704 -0.39197,0.5139 -1.16588,1.15947 -1.7198,1.43461 -0.97387,0.48374 -2.45286,0.5024 -44.795661,0.56508 L 31.355278,191.56 Z"
       id="path14193" /><path
       style="display:inline;fill:#000000;stroke-width:0.264583"
       d="m 30.569406,191.1408 c -2.714831,-0.99386 -3.92685,-3.60402 -2.952272,-6.35791 0.381552,-1.07817 41.089169,-71.76587 42.644152,-74.05046 0.495239,-0.7276 1.305123,-1.59585 1.799741,-1.92944 1.921856,-1.29617 4.486505,-0.98352 6.171176,0.75231 0.891857,0.91894 42.094837,71.47881 43.638847,74.7313 1.08928,2.29457 0.73045,4.32223 -1.03996,5.87668 -0.52702,0.46273 -1.40796,0.96622 -1.95764,1.11887 -0.67977,0.18877 -14.79305,0.27205 -44.126506,0.26037 -37.032722,-0.0147 -43.275525,-0.0715 -44.177538,-0.40172 z m 88.767774,-0.96722 c 2.30119,-1.16253 2.91493,-3.14211 1.74314,-5.6224 -0.34375,-0.7276 -10.05124,-17.57495 -21.572191,-37.43854 -14.586942,-25.14975 -21.256344,-36.41159 -21.965378,-37.0904 -1.801939,-1.7251 -4.193463,-1.62374 -5.876649,0.24909 -1.120246,1.24646 -43.101015,73.91733 -43.44473,75.20506 -0.338236,1.26721 -0.0335,2.72246 0.770087,3.67746 1.401243,1.66529 -1.314698,1.57123 46.030152,1.59415 l 43.137169,0.0209 1.1784,-0.59531 z m -87.608553,-2.38944 c -1.000227,-0.67405 -1.456079,-1.64957 -1.215188,-2.60049 0.295598,-1.16687 41.708666,-72.5821 42.521535,-73.32674 1.142166,-1.04629 2.425231,-0.99827 3.535032,0.1323 1.157631,1.17928 42.496194,72.49878 42.680534,73.63473 0.12511,0.77095 0.014,1.02921 -0.78741,1.83064 l -0.93306,0.93306 H 75.077113 32.624157 Z m 83.367273,-3.2201 c 0,-0.15215 -39.68895,-67.67407 -39.944421,-67.95654 -0.130622,-0.14443 -38.564331,64.4065 -40.414373,67.87754 -0.05817,0.10914 17.99876,0.19843 40.126514,0.19843 22.127755,0 40.23228,-0.0537 40.23228,-0.11943 z m -36.839917,-2.92756 c -3.071002,-0.30361 -3.493714,-0.41115 -4.7625,-1.21162 -3.73657,-2.35738 -5.813504,-4.19837 -13.363625,-11.84547 -4.401375,-4.45791 -8.003015,-8.13999 -8.003645,-8.18239 -0.0024,-0.16364 7.219415,-9.18763 7.412622,-9.26238 0.265525,-0.10273 3.874942,4.13816 7.949919,9.34076 1.776534,2.26813 3.564932,4.29704 3.974216,4.50869 1.018943,0.52692 3.470895,0.4829 5.573197,-0.10005 l 1.748602,-0.48487 0.1616,1.34476 c 0.08888,0.73963 0.162636,2.34361 0.163901,3.5644 l 0.0024,2.21963 4.226423,-0.18935 4.226425,-0.18936 2.851179,1.50338 c 2.5391,1.33882 3.074236,1.75373 4.888992,3.79056 2.034638,2.28362 2.036919,2.28786 1.464874,2.72779 -0.797325,0.61319 -2.502676,0.72955 -3.400291,0.23201 -0.404883,-0.22442 -1.257805,-0.85218 -1.895377,-1.39502 -1.018595,-0.86725 -1.541856,-1.06983 -4.31333,-1.66994 l -3.154185,-0.68297 -2.513542,0.56456 c -3.832831,0.86087 -3.582262,0.73727 -2.921164,1.44097 0.416756,0.44362 0.98637,0.64418 2.185453,0.76951 0.925373,0.0967 1.829192,0.35722 2.10479,0.60663 0.962932,0.87144 0.379129,3.05662 -0.792665,2.96694 -0.244266,-0.0187 -1.960679,-0.18392 -3.81425,-0.36717 z m 10.910753,-10.4598 c -0.976402,-0.39966 -1.940407,-0.48993 -5.357813,-0.50173 l -4.167187,-0.0144 v -12.83229 -12.83229 h 3.836458 3.836459 l 0.0105,8.79739 0.0105,8.7974 1.132766,-1.23007 c 0.927319,-1.00697 1.463002,-1.32913 2.953612,-1.77633 1.001469,-0.30045 1.87017,-0.49695 1.930453,-0.43667 0.06028,0.0603 0.0063,0.68104 -0.119851,1.37946 -0.201869,1.11721 -0.350531,1.329 -1.236731,1.76188 -0.554006,0.27061 -0.969333,0.52997 -0.922946,0.57636 0.04638,0.0464 1.192249,-0.22868 2.546363,-0.61125 2.787782,-0.78761 3.08189,-0.67988 2.633303,0.96459 -0.368457,1.35071 -0.5632,1.52037 -2.475712,2.15682 -0.934873,0.3111 -1.699768,0.63233 -1.699768,0.71384 0,0.0815 1.42875,0.0646 3.175,-0.0375 l 3.175,-0.18571 v 0.70272 c 0,0.94163 -0.758891,2.17546 -1.436145,2.33494 -0.301527,0.071 -1.339414,0.21019 -2.306413,0.3093 -1.628722,0.16693 -1.842211,0.26582 -2.899359,1.34298 -0.627648,0.63952 -1.205683,1.15043 -1.284526,1.13534 -0.07884,-0.0151 -0.67913,-0.24674 -1.333974,-0.51478 z m 0.04108,-3.73867 c -0.240877,-0.0989 -0.765379,-0.18821 -1.165561,-0.19844 -0.712153,-0.0182 -0.727488,0.0137 -0.722162,1.50276 l 0.0055,1.52135 1.160121,-1.32291 c 0.969057,-1.10505 1.08799,-1.35254 0.722161,-1.50276 z m 2.075585,-0.7786 c 0,-0.46917 -0.0653,-0.50737 -0.396875,-0.23219 -0.218282,0.18116 -0.396875,0.43387 -0.396875,0.56157 0,0.1277 0.178593,0.23218 0.396875,0.23218 0.228118,0 0.396875,-0.23878 0.396875,-0.56156 z m -2.119977,-2.91331 c 0.0035,-0.1757 -0.951357,-0.48407 -1.518044,-0.49026 -0.235231,-0.003 -0.328417,0.55027 -0.322718,1.91461 l 0.008,1.91823 0.91472,-1.5875 c 0.503098,-0.87312 0.91621,-1.66291 0.918033,-1.75508 z m -3.791913,-2.61054 -0.834985,-0.13229 -0.07199,-4.96094 -0.07198,-4.96094 h -0.920205 -0.920202 v 5.02708 5.02709 h -0.79375 c -0.436563,0 -0.79375,0.0675 -0.79375,0.14995 0,0.0825 0.564287,0.80356 1.253969,1.60242 l 1.253971,1.45247 1.366954,-1.53627 1.366954,-1.53628 z"
       id="path14191" /></g></svg>
