<?xml version="1.0" encoding="UTF-8" standalone="no"?>
<!-- Created with Inkscape (http://www.inkscape.org/) -->

<svg
   version="1.1"
   id="svg4786"
   width="426.66666"
   height="426.66666"
   viewBox="0 0 426.66666 426.66666"
   sodipodi:docname="protective_clothing.svg"
   inkscape:version="1.2.1 (9c6d41e4, 2022-07-14)"
   xmlns:inkscape="http://www.inkscape.org/namespaces/inkscape"
   xmlns:sodipodi="http://sodipodi.sourceforge.net/DTD/sodipodi-0.dtd"
   xmlns="http://www.w3.org/2000/svg"
   xmlns:svg="http://www.w3.org/2000/svg">
  <sodipodi:namedview
     id="namedview187"
     pagecolor="#ffffff"
     bordercolor="#000000"
     borderopacity="0.25"
     inkscape:showpageshadow="2"
     inkscape:pageopacity="0.0"
     inkscape:pagecheckerboard="0"
     inkscape:deskcolor="#d1d1d1"
     showgrid="false"
     inkscape:zoom="1.2632734"
     inkscape:cx="213.33466"
     inkscape:cy="177.31712"
     inkscape:window-width="1388"
     inkscape:window-height="734"
     inkscape:window-x="0"
     inkscape:window-y="25"
     inkscape:window-maximized="0"
     inkscape:current-layer="svg4786" />
  <defs
     id="defs4790" />
  <g
     id="g4792">
    <path
       style="fill:#0a406b;fill-opacity:1;stroke-width:0.666667"
       d="m 206.29318,400.64711 c -9.49499,-0.48704 -14.19358,-1.10388 -25.62652,-3.3643 -29.13218,-5.75976 -57.95921,-19.40078 -81.999995,-38.8026 C 90.105785,351.57125 75.339779,336.55113 68.702112,327.99999 49.984661,303.88675 37.123743,275.71068 31.729808,247 31.10983,243.7 30.33266,239.61997 30.002764,237.93327 29.672867,236.24658 29.027885,229.12301 28.56947,222.10314 27.006207,198.16433 30.071288,173.48 37.357037,151.33333 44.199383,130.53448 53.140867,113.33056 66.260777,95.720912 91.259072,62.167998 126.33232,38.042133 167,26.42535 c 7.43758,-2.124559 14.82969,-3.674163 28,-5.869627 8.3407,-1.39038 41.27652,-1.184649 50.66666,0.316485 35.60487,5.691898 64.76354,18.138685 91.28765,38.967426 33.55736,26.351765 56.59023,61.894976 67.71448,104.493696 1.00991,3.86734 3.094,15.0594 4.09664,22 1.17882,8.16018 1.18708,39.29602 0.0126,47.66667 -9.54781,68.05064 -49.97155,122.45637 -112.11137,150.88912 -3.53045,1.61539 -17.26569,6.75634 -20.66666,7.7353 -1.65,0.47495 -3.75,1.11743 -4.66667,1.42775 -3.20847,1.08615 -13.10799,3.2583 -21.01923,4.61204 -6.69082,1.1449 -28.76681,2.833 -33.3141,2.54744 -0.73334,-0.0461 -5.5514,-0.30009 -10.70682,-0.56454 z m 30.04015,-3.63183 c 18.27486,-1.79234 33.20877,-5.21498 49.33333,-11.30651 15.71768,-5.93781 32.24512,-15.1062 46.88401,-26.00832 13.93992,-10.38157 32.10072,-29.85468 43.40494,-46.54141 2.87029,-4.23698 12.04438,-20.1256 12.04438,-20.85968 0,-0.1111 1.0665,-2.5109 2.37001,-5.33289 3.30369,-7.15227 6.57149,-15.82016 8.28137,-21.96647 6.41723,-23.0673 7.55471,-31.24182 7.60682,-54.66667 C 406.30066,191.25389 405.856,186.1828 402.89709,172 397.22224,144.79902 385.26307,118.67134 368.41551,96.666665 361.32859,87.410412 359.85973,85.758579 350.22351,76.208472 334.32443,60.451493 315.73467,47.802362 295.12306,38.71618 274.81133,29.762192 256.15426,24.970262 235.33333,23.35963 c -4.95,-0.382914 -10.5,-0.8621 -12.33333,-1.064858 -3.60143,-0.3983 -25.11478,1.199916 -33.09614,2.458694 -54.0725,8.528031 -102.477335,41.038734 -131.12341,88.067924 -3.882522,6.37407 -8.962104,16.22246 -12.814633,24.84527 -6.727034,15.05659 -12.029742,37.06946 -13.95944,57.94912 -2.186027,23.65318 1.576292,52.83987 9.803363,76.05088 9.794278,27.63258 24.107832,50.31439 44.825179,71.03175 20.502521,20.50252 42.872801,34.71476 70.075111,44.51997 4.88195,1.75973 17.13886,5.32073 21.1287,6.13854 21.45089,4.39682 39.47285,5.52395 58.4946,3.65836 z m -33.84471,-9.41555 c -0.25398,-0.25398 -2.79282,-0.69639 -5.64187,-0.98313 -6.89205,-0.69363 -14.27031,-1.92021 -15.54002,-2.58341 -0.56463,-0.29492 -2.65266,-0.75986 -4.64007,-1.0332 -1.9874,-0.27334 -4.07543,-0.73026 -4.64006,-1.01538 -0.56463,-0.28512 -2.8266,-1.03563 -5.0266,-1.6678 -2.2,-0.63218 -4.52093,-1.41208 -5.15762,-1.73311 -0.6367,-0.32104 -1.49136,-0.58371 -1.89925,-0.58371 -0.40789,0 -1.76197,-0.45 -3.00905,-1 -1.24708,-0.55 -3.28776,-1.45 -4.53484,-2 -1.24708,-0.55 -2.74708,-1 -3.33333,-1 -0.58625,0 -1.06591,-0.3 -1.06591,-0.66666 0,-0.36667 -0.375,-0.66862 -0.83334,-0.671 C 145.75508,372.655 132.7276,365.81837 125,361.02958 102.58539,347.13927 82.946152,327.60412 68.671872,305 64.13299,297.81243 56.666666,283.63862 56.666666,282.20974 c 0,-0.48202 -0.3,-0.87641 -0.666667,-0.87641 -0.366667,0 -0.666667,-0.43982 -0.666667,-0.97738 0,-0.53756 -0.424972,-1.96256 -0.944383,-3.16667 -0.519411,-1.2041 -1.419411,-3.28462 -2,-4.62337 -0.580589,-1.33875 -1.055616,-2.86375 -1.055616,-3.38889 0,-0.52514 -0.214536,-1.16934 -0.476746,-1.43154 -0.26221,-0.26222 -0.873042,-1.88722 -1.357403,-3.61112 -0.484362,-1.7239 -1.189025,-4.18436 -1.565917,-5.4677 -1.361292,-4.63524 -2.69992,-10.41242 -3.321171,-14.33333 -0.348581,-2.2 -0.799297,-4.52555 -1.001591,-5.1679 C 42.420485,235.38674 41.756346,224.9269 41.758674,210 c 0.0025,-16.43979 0.353496,-20.96816 2.505716,-32.33334 2.006028,-10.59318 2.457751,-12.68836 3.018417,-14 0.313465,-0.73333 1.105727,-3.28333 1.760582,-5.66666 0.654855,-2.38334 1.403346,-4.63334 1.663312,-5 0.259968,-0.36667 0.695456,-1.70682 0.967754,-2.97812 0.272296,-1.2713 0.723678,-2.7713 1.00307,-3.33334 0.645348,-1.2982 2.237584,-4.92317 3.669952,-8.35521 1.328669,-3.18357 6.239268,-13.05495 6.964417,-14 0.281347,-0.36667 1.49225,-2.46667 2.690896,-4.66667 2.351536,-4.31601 4.315616,-7.19025 11.616789,-16.99999 6.171493,-8.291931 7.41196,-9.710505 15.740133,-18.000005 7.845358,-7.80892 10.655288,-10.326919 16.381108,-14.679206 2.15922,-1.641253 4.07584,-3.142413 4.25918,-3.335925 0.18333,-0.193508 2.58333,-1.844266 5.33333,-3.66835 2.75,-1.824085 5.15023,-3.466518 5.33384,-3.649852 0.18361,-0.183333 1.30861,-0.858333 2.5,-1.5 1.19139,-0.641666 3.14093,-1.691666 4.33232,-2.333333 1.19139,-0.641667 2.31639,-1.316667 2.5,-1.5 0.4323,-0.431643 10.91989,-5.57199 14.16717,-6.943846 1.375,-0.580884 3.625,-1.520686 5,-2.088449 1.375,-0.567763 2.95985,-1.279616 3.52188,-1.581897 0.56204,-0.30228 2.06204,-0.772389 3.33334,-1.044686 1.2713,-0.272297 2.61145,-0.720185 2.97812,-0.995307 0.36666,-0.275121 1.41666,-0.665698 2.33333,-0.867948 0.91667,-0.20225 3.31667,-0.864611 5.33333,-1.471915 7.25982,-2.186234 14.88826,-3.719262 24.66667,-4.957066 3.11667,-0.394524 7.69723,-1.01692 10.17904,-1.383101 5.75783,-0.849548 21.11092,-0.859842 26.97525,-0.01809 2.48181,0.356234 7.21238,0.986267 10.51238,1.400075 3.3,0.413807 7.35,1.006642 9,1.317409 1.65,0.310768 4.8,0.894509 7,1.297202 2.2,0.402694 4.52092,1.018396 5.15762,1.368227 0.63669,0.349831 1.55984,0.636056 2.05145,0.636056 0.87691,0 12.16954,3.534837 14.79093,4.629881 0.73333,0.306339 3.73333,1.54636 6.66666,2.755604 11.28689,4.652927 30.01536,15.113184 34.21429,19.109421 0.48452,0.461135 1.08452,0.838794 1.33333,0.839241 0.24881,4.48e-4 1.35238,0.744553 2.45238,1.653566 2.53951,2.098593 2.72851,2.24868 6.33333,5.029267 4.71473,3.636713 22.07436,21.192206 25.69314,25.983019 4.19161,5.549188 4.01568,5.318368 5.84334,7.666668 1.30861,1.68141 6.6588,9.83182 9.62766,14.66667 1.36632,2.22506 9.8656,19.79472 11.1262,23 0.64893,1.65 1.41093,3.45984 1.69333,4.02188 0.2824,0.56204 0.73625,2.06204 1.00855,3.33333 0.27229,1.2713 0.70778,2.61145 0.96775,2.97812 0.25997,0.36667 1.00845,2.61667 1.66331,5 0.65486,2.38333 1.44051,4.93333 1.7459,5.66667 0.30538,0.73333 0.74055,2.68333 0.96703,4.33333 0.22648,1.65 0.66173,3.75 0.96723,4.66667 0.50711,1.52162 1.34526,7.07654 3.42003,22.66666 1.86235,13.99388 -0.98695,42.96966 -5.96559,60.66667 -0.36103,1.28333 -0.9934,3.53333 -1.40525,5 -0.41185,1.46667 -0.99918,3.26667 -1.30516,4 -0.30599,0.73333 -1.38666,3.58333 -2.40151,6.33333 -2.84498,7.70928 -3.7204,9.72094 -7.37605,16.94977 -3.96238,7.83537 -5.7966,11.25101 -6.29179,11.71639 -0.19536,0.18362 -1.38622,1.98384 -2.64636,4.00051 -9.65366,15.44926 -26.08597,33.8304 -39.33176,43.99641 -1.65,1.26636 -3.15,2.46022 -3.33333,2.65303 -0.18333,0.1928 -1.83333,1.38511 -3.66667,2.64956 -1.83333,1.26446 -3.48333,2.46446 -3.66666,2.66667 -0.44994,0.49627 -2.76712,1.93869 -4,2.48994 -0.55,0.24592 -1.15,0.64914 -1.33333,0.89603 -0.31229,0.42056 -4.66476,2.92164 -10,5.74633 -1.28334,0.67945 -2.43334,1.46036 -2.55556,1.73536 -0.12222,0.275 -0.5096,0.5 -0.86085,0.5 -0.35125,0 -3.08683,1.2 -6.07907,2.66667 -2.99224,1.46666 -5.68132,2.66666 -5.97575,2.66666 -0.29442,0 -2.04621,0.72888 -3.89285,1.61974 -1.84665,0.89085 -4.32018,1.82854 -5.49674,2.08375 -1.17655,0.25521 -2.28918,0.66743 -2.47252,0.91603 -0.18333,0.24861 -1.83333,0.82298 -3.66666,1.27636 -1.83334,0.4534 -4.38334,1.13827 -5.66667,1.52195 -6.47203,1.93495 -14.37786,3.57768 -25.66667,5.3332 -5.3363,0.82985 -38.47894,1.54781 -39.17804,0.84871 z M 251,349.96101 c 1.83333,-0.27833 6.03333,-0.99636 9.33333,-1.59561 3.3,-0.59925 8.08379,-1.38867 10.63065,-1.75427 5.3014,-0.76102 6.66352,-1.56882 6.01062,-3.56456 -0.45856,-1.40169 -1.81395,-9.97828 -3.00926,-19.04188 -0.36233,-2.74741 -0.95108,-6.04741 -1.30834,-7.33333 -0.35726,-1.28592 -0.65124,-3.59532 -0.65328,-5.13202 -0.002,-1.53669 -0.25976,-2.95223 -0.5727,-3.14564 -0.31294,-0.1934 -0.76346,-2.53611 -1.00116,-5.20601 -0.2377,-2.6699 -0.71389,-6.20436 -1.05819,-7.85436 -0.3443,-1.65 -0.99373,-5.4 -1.44317,-8.33333 -0.44944,-2.93334 -1.05606,-6.83334 -1.34806,-8.66667 C 266.28845,276.5 265.7459,272.75 265.37478,270 c -0.37112,-2.75 -0.9686,-6.5 -1.32774,-8.33334 -0.35914,-1.83333 -1.14152,-6.78333 -1.73862,-11 -0.59709,-4.21666 -1.34938,-8.71666 -1.67174,-10 -0.32236,-1.28333 -0.76796,-4.43333 -0.99024,-7 C 259.42417,231.1 258.98408,228.1 258.66846,227 c -0.31562,-1.1 -1.07037,-5.6 -1.67722,-10 -0.60686,-4.4 -1.25669,-8.6 -1.44408,-9.33334 -0.31466,-1.23135 -0.93756,-5.27898 -2.82206,-18.3378 -0.51016,-3.53526 -0.52537,-10.09185 -0.0518,-22.33333 1.06715,-27.58367 1.91125,-43.80233 2.29993,-44.19101 0.19805,-0.19804 0.36987,0.21492 0.38185,0.9177 0.0244,1.43202 2.21217,8.06728 2.88022,8.73532 0.23724,0.23724 0.43134,0.86101 0.43134,1.38615 0,0.52514 0.42018,1.90014 0.93373,3.05555 0.51355,1.15542 1.08781,2.70076 1.27614,3.43409 0.34708,1.3515 1.56101,4.89979 2.50885,7.33333 0.28562,0.73334 1.1236,3.13334 1.86216,5.33334 2.31626,6.89949 4.77538,13.94674 5.35055,15.33333 0.30419,0.73333 1.06954,2.98333 1.70077,5 0.63122,2.01667 1.39965,4.26667 1.70762,5 0.30796,0.73333 1.51372,4.18333 2.67948,7.66667 3.11948,9.32124 3.23382,9.50648 5.62347,9.11052 1.11315,-0.18445 3.8239,-0.83127 6.0239,-1.43738 2.2,-0.6061 5.35,-1.39264 7,-1.74785 1.65,-0.35521 3.52093,-0.93372 4.15762,-1.28557 0.63669,-0.35185 1.74399,-0.63972 2.46065,-0.63972 1.75375,0 2.3547,-1.15248 1.51056,-2.8969 -0.3823,-0.79004 -1.62593,-4.28644 -2.76362,-7.76977 -1.13768,-3.48333 -2.32212,-6.79318 -2.63209,-7.35521 -0.30997,-0.56204 -0.78987,-2.0522 -1.06645,-3.31146 -0.27658,-1.25926 -0.74538,-2.74941 -1.04177,-3.31145 -0.29639,-0.56203 -1.48293,-3.87188 -2.63677,-7.35521 -1.15383,-3.48334 -2.33834,-6.93334 -2.63223,-7.66667 C 290.39532,149.6 289.6071,147.2 288.93761,145 c -0.66949,-2.2 -1.41969,-4.3 -1.66713,-4.66667 -0.24743,-0.36667 -0.66916,-1.71667 -0.93717,-3 -0.26801,-1.28333 -0.68974,-2.63333 -0.93717,-3 -0.24744,-0.36667 -1.01764,-2.46667 -1.71156,-4.66667 -0.69393,-2.2 -1.4722,-4.3 -1.7295,-4.66666 -0.25729,-0.36667 -0.68709,-1.71667 -0.9551,-3 -0.26802,-1.28334 -0.68974,-2.63334 -0.93718,-3 -0.24743,-0.36667 -1.01764,-2.46667 -1.71156,-4.66667 -0.69392,-2.2 -1.4722,-4.3 -1.72949,-4.66667 -0.25729,-0.36666 -0.68709,-1.71666 -0.95511,-3 -0.26801,-1.28333 -0.71239,-2.63333 -0.98752,-2.99999 -0.27512,-0.36667 -0.66008,-1.41667 -0.85546,-2.33334 -1.74579,-8.190591 -6.7655,-15.995898 -12.31599,-19.150485 -2.56335,-1.45686 -11.02383,-2.848406 -17.32149,-2.848966 l -6.14712,-5.47e-4 -1.65902,-3.506873 c -2.1653,-4.577073 -4.4565,-5.929987 -10.26292,-6.06008 l -4.45046,-0.09971 -0.33333,57.666661 L 221,185 h -1.66667 -1.66667 L 217.33333,127.33333 217,69.666666 l -1.61895,-0.22862 c -0.89042,-0.12574 -3.17544,-0.03413 -5.07782,0.203533 -3.98531,0.497933 -7.03808,2.967833 -8.85673,7.16568 l -1.09437,2.526073 h -6.46803 c -10.09932,0 -17.41238,2.149573 -21.99124,6.46402 -2.18764,2.061313 -4.54463,6.59076 -6.17642,11.869313 -0.6801,2.2 -1.49322,4.600005 -1.80692,5.333335 -0.3137,0.73333 -1.15202,3.13333 -1.86294,5.33333 -1.42317,4.40419 -2.6386,7.95315 -3.42474,10 -0.28166,0.73333 -1.45614,4.18333 -2.60998,7.66667 -1.15383,3.48333 -2.34038,6.79318 -2.63676,7.35521 -0.2964,0.56204 -0.76519,2.05219 -1.04177,3.31145 -0.27658,1.25926 -0.74537,2.74942 -1.04177,3.31146 -0.29638,0.56203 -1.48293,3.87188 -2.63676,7.35521 -1.15384,3.48333 -2.35176,6.93333 -2.66207,7.66667 -0.31031,0.73333 -1.05703,2.98333 -1.6594,5 -0.60237,2.01666 -1.35123,4.26666 -1.66415,5 -0.31291,0.73333 -1.51762,4.18333 -2.67712,7.66666 -1.1595,3.48334 -2.34392,6.79318 -2.63202,7.35522 -0.28811,0.56204 -0.75013,2.05219 -1.02671,3.31145 -0.27658,1.25926 -0.81207,2.78467 -1.18999,3.38981 -1.02045,1.634 -0.0956,3.27686 1.84478,3.27686 0.93315,0 2.21756,0.28787 2.85426,0.63972 0.63669,0.35185 2.50762,0.93036 4.15762,1.28557 1.65,0.35521 4.8,1.13851 7,1.74065 7.05094,1.92988 7.66666,1.97349 7.66666,0.54306 0,-0.70162 0.24699,-1.56067 0.54886,-1.909 0.30187,-0.34834 1.11478,-2.43334 1.80647,-4.63334 0.69169,-2.2 1.46007,-4.3 1.7075,-4.66666 0.24743,-0.36667 0.67267,-1.70682 0.94496,-2.97812 0.2723,-1.2713 0.7487,-2.7713 1.05867,-3.33334 0.30996,-0.56203 1.4944,-3.87188 2.63209,-7.35521 1.13769,-3.48333 2.33197,-6.93333 2.65398,-7.66667 0.322,-0.73333 1.522,-4.18333 2.66667,-7.66666 1.14466,-3.48334 2.33531,-6.93334 2.64589,-7.66667 0.31058,-0.73333 1.06459,-2.83333 1.67557,-4.66667 0.61099,-1.83333 1.34614,-3.79318 1.63368,-4.35521 0.28754,-0.56204 0.74558,-2.06204 1.01788,-3.33333 0.27229,-1.2713 0.70792,-2.61146 0.96804,-2.97812 0.26013,-0.36667 0.83754,-1.94167 1.28312,-3.5 0.44558,-1.55834 1.05652,-2.83334 1.35765,-2.83334 0.30113,0 0.76159,5.0597 1.02325,11.24377 0.26166,6.18407 0.74608,12.40907 1.07649,13.83333 0.33042,1.42426 0.60791,4.72254 0.61666,7.3295 0.009,2.60697 0.47654,9.3332 1.03953,14.9472 0.76782,7.65643 0.84884,11.05348 0.32418,13.5934 -0.3847,1.86238 -0.9786,5.33614 -1.31979,7.71947 -0.74267,5.18789 -2.50241,16.3341 -2.94705,18.66667 -0.17474,0.91666 -0.80346,4.81666 -1.39716,8.66666 -0.59369,3.85 -1.3592,8.35 -1.70113,10 -0.34193,1.65 -0.79212,4.65 -1.00042,6.66667 -0.20831,2.01667 -0.64235,4.71667 -0.96455,6 -0.3222,1.28333 -1.07927,5.93333 -1.68239,10.33333 -0.60312,4.4 -1.36146,8.9 -1.6852,10 -0.32374,1.1 -0.79459,4.33334 -1.04633,7.1852 -0.25174,2.85185 -0.71558,5.34456 -1.03075,5.53934 -0.31517,0.19478 -0.57095,1.16145 -0.5684,2.14814 0.006,2.27498 -1.93389,15.1431 -2.6823,17.79399 -0.31055,1.1 -0.75572,4.1 -0.98926,6.66667 -0.23354,2.56666 -0.67227,5.41666 -0.97495,6.33333 -0.30269,0.91667 -1.05338,5.26667 -1.6682,9.66667 -0.61482,4.39999 -1.37025,8.89999 -1.67873,9.99999 -0.30847,1.1 -0.75185,4.1 -0.98527,6.66667 -0.23341,2.56667 -0.7628,5.53189 -1.1764,6.58939 -1.02298,2.61554 0.33051,3.52824 6.04808,4.0784 2.43965,0.23476 4.88573,0.61186 5.43573,0.83802 1.47103,0.6049 11.00703,2.14159 16.00877,2.57976 l 4.34209,0.38038 0.77149,-2.23298 c 0.42432,-1.22813 0.96926,-3.88297 1.21098,-5.89964 0.24172,-2.01666 0.69729,-4.56666 1.01238,-5.66666 0.31508,-1.1 1.03221,-4.4 1.59362,-7.33334 0.5614,-2.93333 1.19877,-6.23333 1.41638,-7.33333 0.58982,-2.98147 2.16846,-10.87759 2.93224,-14.66666 0.85295,-4.2314 2.45476,-12.47005 3.75892,-19.33334 0.55738,-2.93333 1.29084,-6.68333 1.62988,-8.33333 1.8523,-9.0143 2.82005,-14.1158 3.4146,-18 0.3648,-2.38333 0.91168,-4.93333 1.21526,-5.66667 0.30359,-0.73333 1.05641,-4.33333 1.67294,-8 C 214.9294,244 215.69201,240.1 216.00755,239 c 0.31554,-1.1 0.76463,-3.5 0.99799,-5.33334 0.23336,-1.83333 0.68086,-4.08333 0.99446,-5 0.31359,-0.91666 0.78789,-3.16666 1.054,-5 l 0.48382,-3.33333 0.60911,2.33333 c 0.60618,2.3221 2.02281,9.75024 3.16321,16.58628 0.32904,1.97246 0.92787,5.12246 1.33072,7 1.09795,5.11717 1.9835,9.65911 2.68028,13.74706 0.34374,2.01666 0.91518,5.16666 1.26988,7 2.28296,11.80006 2.93834,15.24004 3.81041,20 0.53741,2.93333 1.24633,6.94716 1.57537,8.91961 0.32905,1.97245 0.92788,5.12245 1.33072,7 1.12019,5.22079 1.98694,9.67936 2.73725,14.08039 1.00295,5.88291 1.77193,10.02311 2.97177,15.99999 0.58886,2.93334 1.43888,7.77771 1.88894,10.76527 0.87525,5.8101 1.96704,7.92367 3.70132,7.16527 0.58293,-0.25491 2.55986,-0.6912 4.3932,-0.96952 z M 231.33333,115.66666 v -3 H 239 h 7.66666 v 3 3 H 239 231.33333 Z"
       id="path5276" />
  </g>
</svg>
