<?xml version="1.0" encoding="UTF-8" standalone="no"?>
<!-- Created with Inkscape (http://www.inkscape.org/) -->

<svg
   version="1.1"
   id="svg1109"
   width="421.33334"
   height="413.33334"
   viewBox="0 0 421.33334 413.33334"
   sodipodi:docname="safety_glasses.svg"
   inkscape:version="1.2.1 (9c6d41e4, 2022-07-14)"
   xmlns:inkscape="http://www.inkscape.org/namespaces/inkscape"
   xmlns:sodipodi="http://sodipodi.sourceforge.net/DTD/sodipodi-0.dtd"
   xmlns="http://www.w3.org/2000/svg"
   xmlns:svg="http://www.w3.org/2000/svg">
  <sodipodi:namedview
     id="namedview187"
     pagecolor="#ffffff"
     bordercolor="#000000"
     borderopacity="0.25"
     inkscape:showpageshadow="2"
     inkscape:pageopacity="0.0"
     inkscape:pagecheckerboard="0"
     inkscape:deskcolor="#d1d1d1"
     showgrid="false"
     inkscape:zoom="0.57096773"
     inkscape:cx="-8.7570624"
     inkscape:cy="206.66667"
     inkscape:window-width="1309"
     inkscape:window-height="456"
     inkscape:window-x="0"
     inkscape:window-y="25"
     inkscape:window-maximized="0"
     inkscape:current-layer="svg1109" />
  <defs
     id="defs1113" />
  <g
     id="g1115">
    <path
       style="fill:#0a406b;fill-opacity:1;stroke-width:0.666667"
       d="M 195,395.84929 C 163.40596,391.67475 148.67489,387.49652 125.8896,376.24722 88.825095,357.94814 58.398264,327.62709 39.935989,290.59243 30.809821,272.28566 26.401154,258.76919 22.02085,235.66667 c -3.103315,-16.36745 -3.112222,-46.14842 -0.01854,-62 3.82689,-19.60845 6.540934,-28.99566 12.520572,-43.30563 6.957289,-16.6496 19.554863,-37.396145 29.707806,-48.924839 9.107282,-10.34134 13.530842,-14.7649 23.872182,-23.872182 3.91114,-3.444411 14.45611,-11.071487 21.23047,-15.355787 24.1026,-15.243195 53.03036,-25.25444 82,-28.378352 14.71342,-1.586608 37.98009,-0.875898 52,1.588404 24.49455,4.305447 49.70112,13.95234 70,26.789948 6.77435,4.2843 17.31933,11.911376 21.23047,15.355787 10.34134,9.107282 14.7649,13.530842 23.87218,23.872182 10.15294,11.528694 22.75052,32.275239 29.7078,48.924839 5.97964,14.30997 8.69368,23.69718 12.52058,43.30563 3.09368,15.85158 3.08477,45.63255 -0.0185,62 -4.38031,23.10252 -8.78898,36.61899 -17.91515,54.92576 -18.46227,37.03466 -48.8891,67.35571 -85.95361,85.65479 -23.08305,11.39631 -37.82688,15.53431 -70.145,19.68689 -6.64993,0.85446 -24.89363,0.80554 -31.63207,-0.0848 z m 38.33334,-3.89338 c 20.39818,-2.75909 38.494,-7.61998 52.86457,-14.20046 8.40286,-3.84779 10.55238,-4.92939 17.55793,-8.83481 45.20494,-25.20069 78.96755,-69.77895 90.82761,-119.92369 4.23036,-17.88613 5.05712,-25.13345 5.05712,-44.33028 0,-16.30821 -0.66637,-23.73331 -3.32058,-37 C 391.47611,143.4552 381.59145,119.76759 367.94411,99.666668 339.69383,58.057308 296.91249,29.38029 248.66667,19.713075 234.55231,16.884922 229.16725,16.408221 211.33334,16.408221 193.49942,16.408221 188.11436,16.884922 174,19.713075 125.75418,29.38029 82.972848,58.057308 54.72256,99.666668 41.146669,119.66236 31.165208,143.58196 26.346682,167.66667 c -2.65421,13.26669 -3.320578,20.69179 -3.320578,37 0,19.19683 0.826762,26.44415 5.057125,44.33028 11.860056,50.14474 45.622665,94.723 90.827611,119.92369 7.00554,3.90542 9.15506,4.98702 17.55792,8.83481 17.50542,8.01597 43.35813,14.13279 64.19791,15.18939 7.01705,0.35577 27.25461,-0.25689 32.66667,-0.98893 z m -41,-12.67032 c -5.78862,-0.61876 -16.32384,-2.25815 -17.66667,-2.74912 -0.55,-0.2011 -3.25,-0.89178 -6,-1.53484 -5.55178,-1.29826 -10.96641,-2.82943 -13,-3.67621 -0.73333,-0.30535 -2.83333,-1.06023 -4.66667,-1.67749 -3.46787,-1.16759 -3.85394,-1.31957 -9.33333,-3.6742 -5.5603,-2.3894 -15.73321,-7.61914 -20.51174,-10.54477 -2.48146,-1.51925 -4.67789,-2.76229 -4.88095,-2.76229 -0.20307,0 -0.77986,-0.375 -1.28177,-0.83333 -0.50191,-0.45833 -2.00469,-1.58333 -3.33952,-2.5 -2.34555,-1.61076 -12.307935,-9.26901 -12.986022,-9.98257 -0.183333,-0.19292 -2.422926,-2.15076 -4.976867,-4.35076 -4.602793,-3.9649 -10.07622,-9.52863 -14.42862,-14.66667 -1.2424,-1.46667 -2.409426,-2.81667 -2.59338,-3 C 75.728635,316.39735 70.588574,309.886 68.247534,306.66667 62.278196,298.4578 54.339889,284.3714 50.026282,274.33334 49.238452,272.5 48.333545,270.4 48.015377,269.66667 47.697208,268.93334 46.931855,266.83334 46.314593,265 c -0.617262,-1.83333 -1.363698,-3.93333 -1.658747,-4.66666 -0.894799,-2.224 -2.451064,-7.71966 -3.681342,-13 -0.640729,-2.75 -1.328437,-5.45 -1.528241,-6 -1.854436,-5.10471 -4.33098,-31.92997 -3.815948,-41.33334 0.699699,-12.775 2.604408,-28.71465 3.823842,-32 0.204146,-0.55 0.888558,-3.4 1.520918,-6.33333 0.632359,-2.93333 1.383513,-5.79318 1.669231,-6.35521 0.285718,-0.56204 0.745781,-2.0522 1.022361,-3.31146 0.276581,-1.25926 0.73813,-2.74941 1.025665,-3.31145 0.287535,-0.56203 1.027691,-2.52188 1.64479,-4.35521 0.617099,-1.83334 1.563985,-4.38334 2.104192,-5.66667 0.540207,-1.28333 1.22944,-2.93333 1.531629,-3.66667 1.560754,-3.78753 10.064157,-20.40781 10.743933,-20.99949 0.210948,-0.18361 0.960948,-1.37485 1.666667,-2.64719 0.705719,-1.27234 1.516667,-2.62234 1.802109,-3 0.285441,-0.37766 2.352004,-3.23665 4.592362,-6.35332 4.105547,-5.711418 13.828581,-17.181465 18.866914,-22.256872 4.310787,-4.342507 14.838882,-13.168285 21.021742,-17.622662 3.11667,-2.245373 5.97566,-4.31604 6.35332,-4.601481 0.37766,-0.285441 1.72766,-1.09639 3,-1.802109 1.27234,-0.705718 2.46522,-1.455718 2.65083,-1.666666 1.14364,-1.299682 17.88854,-9.568717 25.66252,-12.672766 0.73333,-0.29281 2.08333,-0.854708 3,-1.248662 2.47718,-1.064612 11.99008,-4.201195 14.66666,-4.835875 1.28334,-0.304309 4.28334,-1.035252 6.66667,-1.62432 12.64071,-3.12429 25.7132,-4.604395 40.66667,-4.604395 14.95346,0 28.02596,1.480105 40.66666,4.604395 2.38334,0.589068 5.38334,1.320011 6.66667,1.62432 2.42355,0.57468 12.00402,3.70195 14.33333,4.678705 2.93812,1.232044 6.73938,2.815018 8,3.331465 4.29695,1.76036 20.19635,9.877323 20.99585,10.718801 0.18561,0.195366 1.98749,1.38271 4.00415,2.638544 8.33177,5.18842 22.23718,16.248213 29.02175,23.082706 8.08263,8.142107 19.02349,21.755002 24.31784,30.256872 1.25583,2.01667 2.44318,3.8169 2.63854,4.00051 0.67846,0.63763 9.23398,17.40399 10.7156,20.99949 0.30219,0.73334 0.99142,2.38334 1.53163,3.66667 0.54021,1.28333 1.48709,3.83333 2.10419,5.66667 0.6171,1.83333 1.35726,3.79318 1.64479,4.35521 0.28754,0.56204 0.74909,2.05219 1.02567,3.31145 0.27658,1.25926 0.73664,2.74942 1.02236,3.31146 0.28572,0.56203 1.03687,3.42188 1.66923,6.35521 0.63236,2.93333 1.31677,5.78333 1.52092,6.33333 0.84449,2.27522 2.18967,12.43502 3.21039,24.24738 1.00773,11.66214 1.00668,13.48749 -0.0145,25 -1.04149,11.7419 -2.38149,21.86581 -3.18803,24.08596 -0.1998,0.55 -0.88751,3.25 -1.52824,6 -1.23028,5.28034 -2.78654,10.776 -3.68134,13 -0.29505,0.73333 -1.04149,2.83333 -1.65875,4.66666 -0.61726,1.83334 -1.38261,3.93334 -1.70078,4.66667 -0.31817,0.73333 -1.22308,2.83333 -2.01091,4.66667 -3.60003,8.37753 -14.0633,27.40898 -15.94385,29 -0.2167,0.18333 -0.95487,1.23333 -1.64038,2.33333 -1.03989,1.66865 -7.94508,10.56468 -9.05578,11.66667 -0.18479,0.18333 -1.35249,1.53333 -2.59489,3 -4.3524,5.13804 -9.82582,10.70177 -14.42862,14.66667 -2.55394,2.2 -4.79353,4.15784 -4.97686,4.35076 -0.67809,0.71356 -10.64048,8.37181 -12.98603,9.98257 -1.33482,0.91667 -2.8376,2.04167 -3.33952,2.5 -0.5019,0.45833 -1.0787,0.83333 -1.28176,0.83333 -0.20307,0 -2.3995,1.24304 -4.88096,2.76229 -4.77852,2.92563 -14.95144,8.15537 -20.51174,10.54477 -5.47939,2.35463 -5.86546,2.50661 -9.33333,3.6742 -1.83333,0.61726 -3.93333,1.37214 -4.66667,1.67749 -2.03359,0.84678 -7.44822,2.37795 -13,3.67621 -2.75,0.64306 -5.45,1.33552 -6,1.53878 -1.34653,0.49762 -11.02416,1.97077 -18,2.73998 -6.60059,0.72784 -30.87486,0.73118 -37.66666,0.005 z m 46.67197,-27.01796 c 4.04251,-2.1043 15.90773,-9.73862 16.21691,-10.43429 0.12223,-0.275 0.51713,-0.5 0.87756,-0.5 1.38288,0 13.78532,-9.7011 18.29313,-14.30875 5.02824,-5.1396 9.60709,-11.94488 9.60709,-14.27846 0,-0.77703 0.22901,-1.41279 0.5089,-1.41279 1.00642,0 3.04966,-9.6415 4.16778,-19.66667 0.36805,-3.3 0.96637,-7.66806 1.32959,-9.7068 0.36322,-2.03873 0.6604,-4.94231 0.6604,-6.45238 0,-3.41747 1.33298,-4.83854 4.54762,-4.84816 7.43127,-0.0222 10.24865,-1.90825 13.45849,-9.00939 1.15602,-2.55746 2.52756,-5.59528 3.04787,-6.75069 0.52031,-1.15541 0.94602,-2.27152 0.94602,-2.48024 0,-0.4517 3.10744,-7.58779 4.02504,-9.24329 0.3529,-0.6367 0.64163,-1.49136 0.64163,-1.89925 0,-0.40789 0.4217,-1.68697 0.93711,-2.84238 0.5154,-1.15541 1.44714,-3.60075 2.07052,-5.43409 0.62337,-1.83333 1.36854,-3.93333 1.65593,-4.66666 0.28739,-0.73334 1.02949,-3.28334 1.64911,-5.66667 0.61964,-2.38333 1.47777,-5.53333 1.90697,-7 0.42919,-1.46667 0.78036,-5.51667 0.78036,-9 0,-7.09163 -0.84841,-9.16157 -4.50213,-10.98429 -3.8608,-1.92601 -7.72931,-1.08289 -16.83121,3.6683 -6.16446,3.21784 -11.25294,6.08886 -11.66853,6.58361 -0.18436,0.21947 -1.60936,1.08301 -3.16667,1.91895 l -2.83146,1.51991 v -6.93258 c 0,-13.50409 -2.63676,-22.30078 -7.33334,-24.46535 -5.50563,-2.53745 -5.28012,-2.52859 -70.13068,-2.7549 -49.85191,-0.17398 -63.30653,-0.045 -63.96667,0.61302 -0.45979,0.45833 -1.42243,0.83333 -2.13921,0.83333 -2.06239,0 -6.13264,4.78063 -6.99875,8.22024 -0.42656,1.69402 -0.76469,8.06507 -0.76469,14.40831 0,8.6622 -0.19854,11.36721 -0.83333,11.35366 -0.45833,-0.01 -3.08333,-1.84778 -5.83333,-4.08444 -6.00234,-4.8819 -12.68914,-9.33116 -16.33334,-10.8679 -1.46666,-0.61848 -4.61666,-1.17822 -7,-1.24386 -4.92817,-0.13572 -7.307612,1.09361 -8.801545,4.54732 -1.065847,2.46406 -1.09816,11.82785 -0.05307,15.38329 0.423034,1.43919 1.26364,4.56671 1.86802,6.95005 1.176575,4.63974 2.667325,9.50144 3.577385,11.66666 0.30822,0.73334 1.0933,2.98334 1.74461,5 0.65131,2.01667 1.4423,3.95167 1.75775,4.3 0.31545,0.34834 0.57354,1.04981 0.57354,1.55884 0,0.50903 0.9,2.86996 2,5.24652 1.1,2.37655 2,4.60414 2,4.9502 0,0.34606 0.28674,1.15013 0.6372,1.78682 0.35045,0.6367 1.51253,3.12162 2.58239,5.52207 3.21845,7.22124 6.15692,9.27109 13.32424,9.29488 3.81902,0.0127 4.7895,0.96258 4.7895,4.68789 0,1.81518 0.28678,4.57962 0.63728,6.14322 0.3505,1.56359 0.94528,5.6929 1.32174,9.17623 1.24808,11.54826 2.0775,15.70831 4.05404,20.33334 0.3134,0.73333 0.78249,2.08333 1.04244,3 1.56011,5.50155 10.04424,14.88026 20.40028,22.55132 3.55068,2.63011 6.63834,4.78201 6.86147,4.78201 0.22313,0 0.76803,0.31653 1.21089,0.70341 1.55883,1.36176 12.18135,8.09296 15.8052,10.01532 l 3.66666,1.94508 24.33864,0.001 24.33864,10e-4 3.32803,-1.73238 z M 184,340.36229 c -3.11666,-1.95688 -5.97334,-3.81395 -6.34817,-4.1268 -0.37483,-0.31285 -2.92483,-2.06882 -5.66667,-3.90215 -2.74184,-1.83333 -5.55007,-3.78333 -6.24052,-4.33333 C 150.4241,315.79593 147.49756,310.34839 145.33021,290 c -0.58307,-5.47422 -1.15491,-10.15162 -2.75074,-22.5 -0.41462,-3.20833 -1.08962,-6.05374 -1.5,-6.32312 -0.41037,-0.26939 -3.93663,-0.49439 -7.83613,-0.5 -8.23987,-0.0119 -7.5624,0.51518 -11.15321,-8.67688 -1.21751,-3.11666 -2.60132,-6.56666 -3.07515,-7.66666 -0.47384,-1.1 -1.25729,-3.2 -1.74101,-4.66667 -0.48372,-1.46667 -1.11825,-2.95167 -1.41006,-3.3 -0.29181,-0.34833 -0.53242,-1.09833 -0.53468,-1.66667 -0.002,-0.56833 -0.42399,-1.83812 -0.93717,-2.82176 -0.51318,-0.98363 -1.14948,-2.77378 -1.414,-3.97812 -0.26451,-1.20432 -0.71018,-2.64953 -0.99036,-3.21157 -1.92824,-3.86788 -3.44564,-13.35521 -2.13604,-13.35521 1.55855,0 6.50106,4.30438 19.14834,16.67612 5.13334,5.02149 10.29344,9.6236 11.4669,10.22693 1.87896,0.96605 5.42172,1.09695 29.68814,1.09695 h 27.55458 l 6.1445,-6 c 5.39925,-5.27228 6.43122,-6 8.50844,-6 2.07296,0 3.1274,0.73856 8.56608,6 l 6.20214,6 h 28.37509 28.37509 l 3.55952,-4.13606 c 16.23685,-18.86674 25.08696,-26.15167 25.78828,-21.22752 0.22164,1.55618 -1.43367,8.54172 -2.53995,10.71879 -0.28559,0.56204 -0.74556,2.05219 -1.02214,3.31145 -0.27658,1.25926 -0.73813,2.74942 -1.02567,3.31146 -0.28753,0.56203 -1.02768,2.52188 -1.64478,4.35521 -1.00201,2.97685 -1.72329,4.81745 -3.65746,9.33333 -0.3141,0.73334 -1.56215,3.88334 -2.77347,7 -3.57062,9.18708 -2.90023,8.66501 -11.14196,8.67688 -3.89949,0.005 -7.4211,0.23061 -7.82578,0.5 -0.40469,0.26938 -1.09697,3.48979 -1.53841,7.15646 -0.44144,3.66666 -1.1036,8.76666 -1.47146,11.33333 -0.36788,2.56667 -0.93569,7.21667 -1.26182,10.33333 -2.13948,20.44605 -5.99058,27.55214 -20.69208,38.18121 -6.43412,4.65182 -12.50604,8.75236 -17.79332,12.01634 l -6.15954,3.80246 -21.50712,-0.0399 -21.50713,-0.0399 z M 151.95248,230.6824 c -2.7014,-1.42813 -3.25063,-2.01119 -5.21477,-5.53601 -1.3114,-2.35343 -1.40437,-3.51018 -1.40437,-17.47283 v -14.95254 l 1.77077,-2.93164 c 1.6554,-2.74063 3.14883,-3.83796 7.76059,-5.70224 2.80722,-1.13481 108.78882,-1.05998 112.63768,0.0795 1.64108,0.48587 3.97558,1.98351 5.59884,3.5918 3.49652,3.46428 3.75462,5.18025 3.4533,22.95918 -0.21957,12.95587 -0.23455,13.07116 -2.05526,15.82016 C 271.01486,231.79874 270.04941,232 248.29808,232 h -19.08836 l -4.00058,-3.6203 c -5.09074,-4.60686 -7.91233,-5.93854 -12.54247,-5.91954 -4.47103,0.0183 -7.74309,1.61614 -12.74129,6.22175 l -3.59204,3.30989 -21,-0.0254 c -19.27075,-0.0233 -21.19606,-0.12901 -23.38086,-1.28404 z m 44.88692,-4.0906 c 10.55907,-10.14012 19.82065,-10.49682 30.58446,-1.17796 l 3.75719,3.25283 h 17.48537 c 16.44222,0 17.63173,-0.0823 19.93856,-1.37877 4.34633,-2.44277 4.83336,-4.63526 4.59836,-20.70079 L 273,192.68598 l -2.51094,-2.50965 -2.51093,-2.50966 -56.15573,-0.20002 c -62.19146,-0.22152 -58.80111,-0.44597 -61.53588,4.07379 -1.1653,1.9259 -1.28652,3.47942 -1.28652,16.48888 0,15.92553 0.17576,16.67461 4.53622,19.33335 1.98326,1.20927 3.47808,1.29919 21.63652,1.30151 l 19.50606,0.003 2.1606,-2.07487 z m -62.8496,-29.70394 c 0.0112,-5.98946 -0.34203,-7.55452 -1.70517,-7.55452 -0.49833,0 -1.89123,-0.42498 -3.09534,-0.94439 -1.20411,-0.51941 -3.28463,-1.41941 -4.62337,-2 -1.33875,-0.58059 -2.76782,-1.05561 -3.17572,-1.05561 -0.40789,0 -1.26255,-0.26338 -1.89924,-0.58528 C 116.39927,183.18494 113.15948,182 111.97738,182 c -1.54332,0 -1.61176,1.16856 -0.4036,6.89126 0.7461,3.53405 1.06728,4.02362 3.49885,5.33333 17.68281,9.52443 17.86986,9.61401 18.41717,8.81963 0.26938,-0.39098 0.49438,-3.16135 0.5,-6.15636 z m 159.90734,4.83851 c 2.83526,-1.50661 6.57636,-3.0597 7.37028,-3.0597 0.40292,0 0.73258,-0.3 0.73258,-0.66667 0,-0.36666 0.47362,-0.66666 1.05247,-0.66666 0.57886,0 2.81965,-0.825 4.97955,-1.83334 3.79884,-1.77346 3.93932,-1.93129 4.30205,-4.83333 0.20623,-1.65 0.5202,-4.13259 0.69769,-5.51687 0.51418,-4.00999 -0.32784,-4.01526 -9.46584,-0.0593 -1.15542,0.5002 -2.56271,0.90945 -3.12732,0.90945 -0.56462,0 -1.17768,0.2445 -1.36237,0.54333 -0.18469,0.29883 -2.15379,1.12383 -4.37579,1.83333 -6.58382,2.10227 -6.75943,2.34881 -6.2614,8.79001 0.40785,5.27492 0.49202,5.5 2.05692,5.5 0.89741,0 2.42794,-0.42314 3.40118,-0.9403 z M 121.77409,181.5 c -0.20749,-1.00833 -0.86425,-3.78333 -1.45948,-6.16666 -1.00007,-4.00433 -2.12902,-9.1708 -3.64193,-16.66667 -0.91308,-4.52395 -2.47313,-11.19029 -3.66629,-15.66667 -2.28238,-8.56279 -2.33898,-8.91741 -1.67063,-10.46716 1.14826,-2.66253 2.21688,-4.03122 6.66424,-8.53554 5.81537,-5.88984 11.37156,-9.97914 14.17748,-10.43448 2.0203,-0.32785 2.91705,0.0737 7.23108,3.23768 6.1472,4.50849 8.627,5.58418 10.52796,4.56681 C 151.47005,120.54659 156,114.17761 156,112.84224 156,112.37901 156.23532,112 156.52293,112 c 0.28761,0 1.02057,-0.825 1.62879,-1.83333 1.75187,-2.90429 4.46414,-5.5 5.74696,-5.5 1.00578,0 3.43466,3.93569 3.43466,5.56542 0,0.2479 1.08386,2.70362 2.40859,5.45716 2.60632,5.41743 8.93427,12.60343 12.74395,14.47202 1.1839,0.58068 4.3339,1.57406 7,2.20751 2.6661,0.63344 5.44746,1.38802 6.18079,1.67682 0.73333,0.28882 2.53333,0.71483 4,0.9467 1.46667,0.23187 3.56667,0.69476 4.66667,1.02864 3.66844,1.11348 13.26395,2.59646 19.33333,2.98796 7.25868,0.4682 9.90942,-0.14119 10.23026,-2.35191 0.22903,-1.57807 -1.68947,-8.41489 -2.70052,-9.62365 -1.763,-2.10777 0.40474,-2.96372 4.42293,-1.74645 1.12603,0.34112 3.84733,1.13765 6.04733,1.77007 2.2,0.63242 4.9,1.50832 6,1.94644 1.1,0.43813 3.05,1.17677 4.33333,1.64143 1.28334,0.46466 3.27868,1.25966 4.43409,1.76667 1.15541,0.50701 2.52041,0.92184 3.03333,0.92184 0.51292,0 1.25798,0.3254 1.65569,0.7231 0.39771,0.39772 1.43271,0.62272 2.3,0.5 1.51795,-0.21476 1.58309,-0.45984 1.74283,-6.55644 0.18631,-7.11116 0.55047,-9.33333 1.5295,-9.33333 0.36852,0 2.23365,1.07557 4.14472,2.39016 1.91108,1.31459 4.52885,2.83455 5.81726,3.3777 4.63594,1.95432 9.65786,3.56547 11.11346,3.56547 0.81608,0 1.64328,0.2581 1.83824,0.57356 0.19497,0.31546 1.7736,0.76806 3.50806,1.0058 1.73448,0.23774 4.06766,0.70874 5.18487,1.04667 1.11721,0.33793 3.83129,1.15304 6.03129,1.81135 6.93468,2.0751 7.18967,2.36994 6.78877,7.84972 -0.3435,4.69514 -1.1509,9.27828 -2.41576,13.7129 -1.24631,4.36958 -3.52683,13.65634 -4.28429,17.44652 -0.41546,2.07892 -0.98039,4.00392 -1.25539,4.27778 -0.275,0.27386 -0.5,2.09792 -0.5,4.05348 0,3.93922 0.6548,4.37184 3.89714,2.57482 0.97324,-0.53942 3.01084,-1.29191 4.52801,-1.67221 3.04656,-0.76368 2.70843,-0.0103 4.49443,-10.01372 2.90592,-16.27604 5.01904,-25.54817 7.1086,-31.19167 3.00958,-8.12835 1.31586,-11.82467 -10.90942,-23.80833 C 303.03617,107.09032 298,101.73939 298,101.01963 c 0,-0.20449 -1.275,-1.995668 -2.83333,-3.980402 -1.55833,-1.984733 -3.58333,-4.68176 -4.5,-5.993393 C 280.3887,76.339361 278.15552,73.412295 277,73.132741 c -2.34322,-0.566893 -11.28512,-3.257907 -12.66666,-3.81196 -1.46045,-0.5857 -5.63557,-1.815067 -12.33334,-3.63157 -2.38333,-0.646384 -4.78333,-1.342707 -5.33333,-1.547384 -0.55,-0.204678 -2.65,-0.777818 -4.66667,-1.273645 -2.01666,-0.495828 -4.71666,-1.166862 -6,-1.491188 -5.36522,-1.355908 -11.88186,-2.849316 -15,-3.437525 -1.83333,-0.345842 -4.53333,-0.903655 -6,-1.239585 -10.41261,-2.384934 -11.58,-2.387792 -19,-0.04652 -12.88429,4.065452 -21.70987,7.090292 -21.88888,7.502096 -0.12223,0.281165 -0.78705,0.511208 -1.47739,0.511208 -0.69033,0 -2.24033,0.424972 -3.44444,0.944383 -1.20411,0.519411 -3.38929,1.433943 -4.85595,2.032297 -1.46667,0.598353 -3.1876,1.37338 -3.82429,1.72228 -0.63669,0.348906 -1.49135,0.634373 -1.89925,0.634373 -0.40789,0 -1.83696,0.480587 -3.17571,1.067973 -1.33875,0.587387 -3.03409,1.321007 -3.76742,1.630267 -0.73333,0.30926 -2.83333,1.195054 -4.66667,1.968427 -1.83333,0.773373 -4.00833,1.689753 -4.83333,2.0364 -0.825,0.346647 -2.175,0.913887 -3,1.260533 -10.66561,4.48144 -16.12814,7.181367 -17.92685,8.860574 -3.85411,3.598053 -7.05439,9.273813 -16.4508,29.175825 -0.95214,2.01667 -2.93056,5.61667 -4.3965,8 -1.913545,3.11106 -2.672438,5.08551 -2.690505,7 -0.02447,2.59189 1.808633,10.15546 3.027275,12.49096 0.33222,0.63669 0.60404,1.72724 0.60404,2.42344 0,0.6962 0.43819,2.72528 0.97375,4.50905 0.9164,3.05223 2.98183,11.5213 4.44915,18.24322 0.36017,1.65 0.91989,3.6 1.24383,4.33333 0.32392,0.73334 0.7825,2.3185 1.01905,3.52259 0.46272,2.35535 2.13079,3.77543 5.31423,4.52419 1.1,0.25872 2.3,0.69676 2.66666,0.97341 0.36667,0.27665 1.26667,0.65049 2,0.83074 2.85211,0.70106 3.16498,0.54869 2.77409,-1.35093 z"
       id="path1640" />
  </g>
</svg>
