<?xml version="1.0" encoding="UTF-8" standalone="no"?>
<!-- Created with Inkscape (http://www.inkscape.org/) -->

<svg
   version="1.1"
   id="svg3177"
   width="410.66666"
   height="380"
   viewBox="0 0 410.66666 380"
   xmlns="http://www.w3.org/2000/svg"
   xmlns:svg="http://www.w3.org/2000/svg">
  <defs
     id="defs3181" />
  <g
     id="g3183">
    <path
       style="fill:#0a406b;fill-opacity:1;stroke-width:0.666667"
       d="M 192.33333,362.03436 C 188.3,361.7435 183.2,361.03577 181,360.46161 c -2.2,-0.57415 -6.33138,-1.36076 -9.18085,-1.74802 -8.77945,-1.19319 -29.51239,-7.7883 -36.10229,-11.48408 -0.70572,-0.39579 -4.68922,-2.48055 -8.8522,-4.63281 -8.12406,-4.20013 -12.37552,-6.87454 -21.57194,-13.56997 C 86.245699,315.15959 67.585532,293.66437 56.655473,273 c -1.939419,-3.66667 -3.74409,-6.96667 -4.010379,-7.33333 -1.063024,-1.46374 -5.014777,-11.12204 -7.773957,-19 -3.784087,-10.80426 -5.978379,-19.5344 -6.786356,-27 -0.357148,-3.3 -1.170868,-8.25 -1.808267,-11 C 35.365674,204.73693 35.114358,200.52723 35.10243,189 l -0.01517,-14.66667 1.411758,-6.66666 c 0.776465,-3.66667 1.590071,-8.69054 1.808012,-11.16415 0.829644,-9.41641 7.076356,-29.29087 13.149365,-41.83585 8.779122,-18.134983 17.584647,-31.229403 30.31338,-45.078083 6.34936,-6.90801 17.207386,-16.813221 22.487015,-20.513733 1.62814,-1.14117 4.86142,-3.435798 7.18506,-5.099174 3.91073,-2.799483 9.39538,-6.039731 20.70977,-12.235002 2.46672,-1.350672 6.51672,-3.220467 9,-4.155101 2.48327,-0.934633 4.81504,-1.926318 5.18171,-2.203742 C 146.7,25.104409 149.25,24.197612 152,23.366729 c 2.75,-0.830884 6.65,-2.051281 8.66666,-2.711994 6.93868,-2.273293 11.98509,-3.351442 18.66667,-3.988068 3.6836,-0.350977 8.56552,-1.160084 10.84873,-1.798016 5.31522,-1.485088 32.85612,-1.708265 36.15127,-0.292952 1.1,0.472466 6.5,1.417195 12,2.099398 7.01876,0.870586 12.17321,1.948593 17.28962,3.61597 4.00929,1.30658 7.66928,2.3756 8.13332,2.3756 0.46404,0 3.61045,1.2 6.99201,2.666666 C 274.12985,26.8 277.27298,28 277.733,28 c 0.93076,0 13.93964,6.622872 19.52646,9.941002 16.57616,9.844914 31.45971,22.417275 45.89484,38.768071 12.14198,13.753327 27.61188,41.788097 31.45309,56.999717 0.74656,2.9565 1.94388,6.7065 2.6607,8.33333 0.71681,1.62683 1.50434,4.90788 1.75004,7.29121 0.24572,2.38334 0.8874,5.83334 1.42596,7.66667 0.53856,1.83333 1.26274,6.48333 1.60927,10.33333 0.34653,3.85 1.09701,10.20546 1.66773,14.12324 l 1.03767,7.12323 -1.02317,7.2101 c -0.56275,3.96555 -1.21295,9.7601 -1.44488,12.87677 -0.23194,3.11666 -0.97016,7.91666 -1.64048,10.66666 -0.67034,2.75 -1.43012,6.8 -1.68842,9 -0.2583,2.2 -1.06307,5.5 -1.78837,7.33334 -0.72529,1.83333 -2.02568,5.74758 -2.88973,8.69833 -3.97743,13.58291 -19.14417,41.86791 -27.28282,50.8807 -1.20238,1.33153 -3.424,4.07097 -4.93691,6.08763 -6.34591,8.4589 -23.23557,24.14454 -34.45628,32 -11.49032,8.04422 -29.2263,17.22358 -38.6077,19.98164 -2.2,0.64678 -6.73561,2.1155 -10.07913,3.26383 -3.34352,1.14833 -7.09352,2.09025 -8.33333,2.09315 -1.23982,0.003 -5.8237,0.74797 -10.18641,1.65569 l -7.9322,1.65039 -16.40113,0.29259 c -9.02062,0.16092 -19.70114,0.0546 -23.73447,-0.23626 z m 9.097,-30.01873 12.43033,-0.6072 7.56967,-2.28378 c 4.16331,-1.25607 9.66678,-2.64431 12.22993,-3.08496 7.85846,-1.35104 24.04004,-8.90648 27.25301,-12.72487 2.97186,-3.53185 3.07389,-10.41886 0.18242,-12.31343 -0.80031,-0.52438 -4.13787,-1.59058 -7.41678,-2.36932 -6.27375,-1.49 -9.40971,-2.83984 -14.34558,-6.17489 -4.59943,-3.10771 -12.03679,-9.58189 -14.96543,-13.0273 -1.44765,-1.7031 -3.91625,-4.50185 -5.48578,-6.21945 -5.14756,-5.63319 -7.58302,-13.084 -8.83832,-27.03911 -0.78148,-8.68761 -0.0474,-16.54983 1.95774,-20.96801 1.46644,-3.23118 1.73805,-7.86372 0.53179,-9.06998 -1.62143,-1.62142 -4.60813,-0.90087 -7.5656,1.82524 -3.46279,3.19188 -7.03363,4.1251 -8.99439,2.35064 -1.67716,-1.51782 -1.66905,-3.94684 0.0188,-5.6347 l 1.32549,-1.3255 4.84117,0.39532 4.84118,0.39532 7,-7.46059 c 7.92053,-8.44168 10.66831,-12.40562 12.63361,-18.22519 1.42886,-4.23109 1.91575,-13.36899 0.75069,-14.08904 -0.33863,-0.20928 -1.12183,-1.90436 -1.74045,-3.76684 -1.38415,-4.1673 -4.43578,-7.74844 -7.97147,-9.35467 -4.87534,-2.21482 -9.72816,-1.19039 -14.14942,2.98695 l -2.94034,2.77812 -0.58921,4.69255 c -1.05161,8.37519 -3.12153,11.63239 -7.39223,11.63239 -2.02221,0 -2.796,0.39696 -4.05046,2.07792 -3.68063,4.93198 -6.36761,7.25542 -8.39064,7.25542 -2.5172,0 -3.08606,-0.71983 -4.47831,-5.66667 -1.81991,-6.4664 -1.92036,-8.61917 -0.58144,-12.46153 0.99571,-2.85744 1.22051,-5.39897 1.16801,-13.20514 l -0.065,-9.66666 -1.71526,-5.08922 c -2.12462,-6.30379 -3.63615,-9.29492 -7.46474,-14.77177 -3.57789,-5.11821 -4.50556,-5.96251 -5.94456,-5.41031 -1.20595,0.46276 -1.47459,1.40906 -2.06046,7.25806 -0.4581,4.57325 -1.77124,7.01324 -3.77436,7.01324 -1.45141,0 -7.20832,-5.00494 -20.1293,-17.5 C 131.03862,119.225 127.31203,116 126.83334,116 c -1.94284,0 -8.98437,17.67127 -11.09397,27.84114 -1.15631,5.5743 -0.58221,8.59355 2.48813,13.08523 1.30456,1.90847 1.7725,3.42682 1.7725,5.75135 v 3.15833 l -5.12131,7.24864 c -10.01799,14.17936 -13.54536,19.7894 -13.54536,21.54301 0,2.53797 1.51039,4.31167 5.98752,7.03139 6.25681,3.8008 8.09179,7.45462 6.63977,13.22111 -0.63316,2.51449 -0.58568,3.60975 0.26466,6.10536 l 1.03623,3.04117 -0.95687,3.1533 c -1.29208,4.25792 -1.33255,4.05435 1.7562,8.83324 3.62593,5.61002 3.87444,7.51329 1.572,12.0398 -1.3264,2.60768 -1.85392,4.66751 -1.89502,7.39961 l -0.0569,3.78602 2.00212,2.84867 c 1.10117,1.56677 2.94241,3.39783 4.09165,4.06902 2.63916,1.54136 9.32442,2.92956 17.89202,3.7153 9.85968,0.90424 17.4196,3.43644 21.67086,7.25869 4.04901,3.64041 9.42024,13.65364 10.90708,20.33333 0.51454,2.31163 1.73764,7.20296 2.718,10.86962 1.01146,3.78294 2.03996,9.98296 2.37772,14.33334 l 0.59524,7.66666 1.43941,1.16667 c 1.67789,1.35997 3.76963,1.40887 22.05535,0.51563 z m 80.11349,-37.45655 c 5.28552,-2.81034 12.03847,-10.89724 14.89198,-17.83368 1.84672,-4.48909 1.96898,-9.25035 0.55785,-21.7254 -1.41082,-12.47241 -1.28218,-23.04141 0.37972,-31.19649 1.39449,-6.84286 2.95321,-10.45916 12.239,-28.3949 5.9104,-11.41608 7.69174,-21.3708 7.70809,-43.07528 0.014,-18.59024 -1.30685,-26.90794 -5.66385,-35.66666 -0.82078,-1.65 -1.70529,-4.05 -1.96556,-5.33334 -0.94644,-4.66653 -6.84215,-14.652343 -12.56572,-21.28309 -1.5356,-1.778993 -3.94357,-4.843067 -5.35103,-6.809053 -2.91774,-4.075574 -12.99441,-13.458027 -18.44097,-17.1705 -11.26567,-7.678888 -29.09581,-14.911994 -39.69907,-16.10463 -3.28218,-0.369172 -9.35796,-1.112561 -13.50174,-1.651974 -4.14378,-0.539412 -12.18942,-0.98075 -17.87919,-0.98075 h -10.34504 l -6.78748,1.697254 c -11.87345,2.969036 -22.24847,6.775896 -25.99733,9.539093 -1.90125,1.401366 -4.18823,2.937222 -5.08218,3.413012 C 151.59918,63.28247 146,68.716627 146,69.786993 c 0,0.515827 0.75952,1.749774 1.68783,2.7421 0.92831,0.992334 2.16403,3.45424 2.74605,5.470907 2.19758,7.614553 13.94672,27.41694 22.48178,37.89153 6.57662,8.07111 9.8223,11.51108 21.53798,22.82724 9.45028,9.12802 16.5548,14.18018 23.10683,16.43172 4.6601,1.60139 6.79499,3.32205 9.70527,7.82216 3.43282,5.3081 6.06759,13.73344 6.06759,19.40264 0,2.35676 -0.66908,6.45034 -1.55319,9.50279 -1.4791,5.10667 -2.39859,6.69453 -8.28693,14.3107 -2.06455,2.67036 -5.28141,11.46941 -6.79079,18.57481 -0.33918,1.59669 -0.88008,3.95308 -1.20202,5.23641 -0.71006,2.83059 0.0305,19.99675 1.12157,26 1.12273,6.17705 5.17735,14.35665 9.11036,18.37881 4.98011,5.09298 13.18763,11.1409 20.77478,15.3084 9.28793,5.10173 15.77378,6.07456 24.24095,3.63598 l 3.08139,-0.88745 1.84185,1.4488 c 2.06608,1.62518 3.72602,1.81585 5.87252,0.67454 z"
       id="path3669" />
  </g>
</svg>
